<?xml version="1.0" encoding="iso-8859-1"?>
<!-- Generator: Adobe Illustrator 17.1.0, SVG Export Plug-In . SVG Version: 6.00 Build 0)  -->
<!DOCTYPE svg PUBLIC "-//W3C//DTD SVG 1.1//EN" "http://www.w3.org/Graphics/SVG/1.1/DTD/svg11.dtd">
<svg version="1.1" id="Capa_1" xmlns="http://www.w3.org/2000/svg" xmlns:xlink="http://www.w3.org/1999/xlink" x="0px" y="0px"
	 viewBox="0 0 361.877 361.877" style="enable-background:new 0 0 361.877 361.877;" xml:space="preserve">
<g>
	<path d="M354.277,208.842c4.143,0,7.5-3.358,7.5-7.5s-3.357-7.5-7.5-7.5h-211.25c-4.142,0-7.5,3.358-7.5,7.5v120.884
		c0,4.142,3.358,7.5,7.5,7.5h80.852v20.226c0,2.858,1.625,5.468,4.189,6.73c1.05,0.517,2.183,0.77,3.31,0.77
		c1.627,0,3.241-0.529,4.579-1.56l33.955-26.167h84.365c4.143,0,7.5-3.358,7.5-7.5v-81.288c0-4.142-3.357-7.5-7.5-7.5
		s-7.5,3.358-7.5,7.5v73.788h-79.42c-1.656,0-3.266,0.548-4.578,1.56l-23.9,18.418v-12.478c0-4.142-3.357-7.5-7.5-7.5h-80.852
		V208.842H354.277z"/>
	<path d="M166.752,163.609V42.725c0-4.142-3.358-7.5-7.5-7.5H7.5c-4.142,0-7.5,3.358-7.5,7.5v120.884c0,4.142,3.358,7.5,7.5,7.5
		h30.439c4.142,0,7.5-3.358,7.5-7.5s-3.358-7.5-7.5-7.5H15V50.225h136.752v105.884h-40.827c-4.142,0-7.5,3.358-7.5,7.5v12.478
		l-23.901-18.418c-3.282-2.53-7.991-1.919-10.519,1.362c-2.529,3.281-1.918,7.99,1.362,10.519l35.979,27.727
		c1.338,1.031,2.953,1.56,4.579,1.56c1.127,0,2.259-0.254,3.309-0.77c2.565-1.262,4.19-3.872,4.19-6.73v-20.227h40.827
		C163.394,171.109,166.752,167.751,166.752,163.609z"/>
	<path d="M354.377,4.425H243.938c-4.143,0-7.5,3.358-7.5,7.5s3.357,7.5,7.5,7.5h102.938v95.878h-59.946
		c-1.656,0-3.266,0.548-4.578,1.559l-23.901,18.419v-12.478c0-4.142-3.357-7.5-7.5-7.5h-40.826V11.925c0-4.142-3.357-7.5-7.5-7.5
		s-7.5,3.358-7.5,7.5v110.878c0,4.142,3.357,7.5,7.5,7.5h40.826v20.226c0,2.858,1.625,5.468,4.189,6.73
		c1.05,0.516,2.183,0.77,3.31,0.77c1.627,0,3.241-0.529,4.579-1.559l33.956-26.167h64.892c4.143,0,7.5-3.358,7.5-7.5V11.925
		C361.877,7.783,358.52,4.425,354.377,4.425z"/>
</g>
<g>
</g>
<g>
</g>
<g>
</g>
<g>
</g>
<g>
</g>
<g>
</g>
<g>
</g>
<g>
</g>
<g>
</g>
<g>
</g>
<g>
</g>
<g>
</g>
<g>
</g>
<g>
</g>
<g>
</g>
</svg>
